<svg width="89" height="15" viewBox="0 0 89 15" fill="none" xmlns="http://www.w3.org/2000/svg">
<path d="M5.65553 14.737C5.11074 14.737 4.83836 14.5869 4.83836 14.2867V1.92528H0.915912C0.779716 1.92528 0.677569 1.87753 0.609471 1.78202C0.541373 1.68651 0.507324 1.5296 0.507324 1.3113V0.983846C0.507324 0.765542 0.541373 0.608635 0.609471 0.513129C0.677569 0.41762 0.779716 0.369866 0.915912 0.369866H10.4973C10.6471 0.369866 10.7493 0.41762 10.8037 0.513129C10.8718 0.608635 10.9059 0.765542 10.9059 0.983846V1.3113C10.9059 1.5296 10.8718 1.68651 10.8037 1.78202C10.7493 1.87753 10.6471 1.92528 10.4973 1.92528H6.63614V14.2867C6.63614 14.5869 6.36376 14.737 5.81897 14.737H5.65553ZM13.9259 14.6961C13.708 14.6961 13.5514 14.6483 13.456 14.5528C13.3607 14.4573 13.313 14.3004 13.313 14.0821V0.983846C13.313 0.765542 13.3607 0.608635 13.456 0.513129C13.5514 0.41762 13.708 0.369866 13.9259 0.369866H21.0558C21.2056 0.369866 21.3077 0.41762 21.3623 0.513129C21.4303 0.608635 21.4644 0.765542 21.4644 0.983846V1.3113C21.4644 1.5296 21.4303 1.68651 21.3623 1.78202C21.3077 1.87753 21.2056 1.92528 21.0558 1.92528H15.1108V6.59153H20.4429C20.5927 6.59153 20.6949 6.63927 20.7493 6.73479C20.8174 6.8303 20.8515 6.9872 20.8515 7.20551V7.53296C20.8515 7.75127 20.8174 7.90816 20.7493 8.00368C20.6949 8.09919 20.5927 8.14694 20.4429 8.14694H15.1108V13.1406H21.0763C21.226 13.1406 21.3282 13.1884 21.3827 13.2839C21.4507 13.3794 21.4848 13.5363 21.4848 13.7546V14.0821C21.4848 14.3004 21.4507 14.4573 21.3827 14.5528C21.3282 14.6483 21.226 14.6961 21.0763 14.6961H13.9259ZM27.4482 14.8189C26.631 14.8189 25.8751 14.7233 25.1805 14.5323C24.4859 14.3413 23.9615 14.1094 23.6075 13.8365C23.3486 13.6455 23.2193 13.4749 23.2193 13.3248C23.2193 13.1611 23.3078 12.936 23.4849 12.6495C23.6755 12.3629 23.8252 12.2197 23.9343 12.2197C23.9887 12.2197 24.1317 12.2879 24.3633 12.4243C24.7854 12.6563 25.2349 12.8541 25.7117 13.0178C26.202 13.1816 26.7808 13.2634 27.4482 13.2634C28.238 13.2634 28.8782 13.0451 29.3685 12.6085C29.8723 12.1583 30.1244 11.5716 30.1244 10.8485C30.1244 10.3436 29.9882 9.92748 29.7159 9.60003C29.4433 9.25892 29.1097 8.99286 28.7148 8.80185C28.3334 8.59719 27.7751 8.3516 27.0396 8.06508C26.2496 7.75127 25.623 7.46475 25.1601 7.20551C24.697 6.94626 24.3021 6.56424 23.9752 6.05941C23.6483 5.54095 23.4849 4.86557 23.4849 4.03328C23.4849 3.2965 23.6687 2.64159 24.0365 2.06854C24.4177 1.4955 24.9489 1.05207 25.63 0.738255C26.3246 0.410799 27.1213 0.24707 28.0202 0.24707C28.4831 0.24707 29.0008 0.31529 29.5728 0.451731C30.1449 0.574527 30.5874 0.745076 30.9008 0.96338C31.1731 1.12711 31.3093 1.30448 31.3093 1.4955C31.3093 1.64558 31.2207 1.86388 31.0438 2.15041C30.8803 2.43693 30.7508 2.58019 30.6556 2.58019C30.5874 2.58019 30.4852 2.54608 30.3492 2.47786C30.2266 2.40965 30.1449 2.36188 30.104 2.3346C29.4229 1.97986 28.7148 1.80248 27.9794 1.80248C27.1893 1.80248 26.5493 2.00715 26.059 2.41647C25.5822 2.82578 25.344 3.39202 25.344 4.11514C25.344 4.57904 25.4596 4.95425 25.6913 5.24077C25.9364 5.52729 26.2087 5.7456 26.5084 5.89568C26.8216 6.03213 27.3595 6.25042 28.1224 6.55059C28.9395 6.8644 29.6068 7.17139 30.1244 7.47156C30.6419 7.75809 31.0777 8.18106 31.4319 8.74045C31.7996 9.28622 31.9835 9.98888 31.9835 10.8485C31.9835 12.0764 31.5749 13.0451 30.7577 13.7546C29.9406 14.4641 28.8374 14.8189 27.4482 14.8189ZM38.2349 14.737C37.6901 14.737 37.4177 14.5869 37.4177 14.2867V1.92528H33.4953C33.359 1.92528 33.2569 1.87753 33.1889 1.78202C33.1206 1.68651 33.0867 1.5296 33.0867 1.3113V0.983846C33.0867 0.765542 33.1206 0.608635 33.1889 0.513129C33.2569 0.41762 33.359 0.369866 33.4953 0.369866H43.0767C43.2264 0.369866 43.3286 0.41762 43.3831 0.513129C43.4511 0.608635 43.4853 0.765542 43.4853 0.983846V1.3113C43.4853 1.5296 43.4511 1.68651 43.3831 1.78202C43.3286 1.87753 43.2264 1.92528 43.0767 1.92528H39.2155V14.2867C39.2155 14.5869 38.943 14.737 38.3983 14.737H38.2349ZM49.447 14.737C48.9023 14.737 48.6298 14.5869 48.6298 14.2867V1.92528H44.7074C44.5713 1.92528 44.4691 1.87753 44.4009 1.78202C44.3329 1.68651 44.2988 1.5296 44.2988 1.3113V0.983846C44.2988 0.765542 44.3329 0.608635 44.4009 0.513129C44.4691 0.41762 44.5713 0.369866 44.7074 0.369866H54.2887C54.4387 0.369866 54.5408 0.41762 54.5952 0.513129C54.6634 0.608635 54.6973 0.765542 54.6973 0.983846V1.3113C54.6973 1.5296 54.6634 1.68651 54.5952 1.78202C54.5408 1.87753 54.4387 1.92528 54.2887 1.92528H50.4276V14.2867C50.4276 14.5869 50.1553 14.737 49.6104 14.737H49.447ZM55.4081 14.737C54.8226 14.737 54.5296 14.621 54.5296 14.3891C54.5296 14.3209 54.55 14.2253 54.5909 14.1025L59.4327 0.656391C59.5144 0.438086 59.7869 0.328934 60.2498 0.328934H60.8423C61.3326 0.328934 61.6051 0.438086 61.6595 0.656391L66.5012 14.123C66.5421 14.2185 66.5625 14.3072 66.5625 14.3891C66.5625 14.621 66.2698 14.737 65.6841 14.737H65.5206C65.044 14.737 64.7717 14.6278 64.7034 14.4095L63.4981 11.0531H57.4919L56.3274 14.4095C56.2594 14.6278 55.987 14.737 55.5102 14.737H55.4081ZM62.9465 9.49769L60.8014 3.39883C60.7334 3.18052 60.6517 2.78485 60.5563 2.21181H60.5154C60.4065 2.75757 60.3044 3.15324 60.209 3.39883L58.0639 9.49769H62.9465ZM71.7984 14.8189C70.9812 14.8189 70.2253 14.7233 69.5307 14.5323C68.8361 14.3413 68.3117 14.1094 67.9576 13.8365C67.6988 13.6455 67.5695 13.4749 67.5695 13.3248C67.5695 13.1611 67.6579 12.936 67.8351 12.6495C68.0257 12.3629 68.1754 12.2197 68.2845 12.2197C68.3389 12.2197 68.4819 12.2879 68.7135 12.4243C69.1356 12.6563 69.5851 12.8541 70.0619 13.0178C70.5522 13.1816 71.1309 13.2634 71.7984 13.2634C72.5882 13.2634 73.2284 13.0451 73.7187 12.6085C74.2225 12.1583 74.4746 11.5716 74.4746 10.8485C74.4746 10.3436 74.3384 9.92748 74.066 9.60003C73.7935 9.25892 73.4599 8.99286 73.065 8.80185C72.6836 8.59719 72.1252 8.3516 71.3898 8.06508C70.5998 7.75127 69.9732 7.46475 69.5101 7.20551C69.0471 6.94626 68.6522 6.56424 68.3254 6.05941C67.9985 5.54095 67.8351 4.86557 67.8351 4.03328C67.8351 3.2965 68.0189 2.64159 68.3867 2.06854C68.7679 1.4955 69.299 1.05207 69.9801 0.738255C70.6748 0.410799 71.4715 0.24707 72.3704 0.24707C72.8333 0.24707 73.351 0.31529 73.923 0.451731C74.495 0.574527 74.9376 0.745076 75.2509 0.96338C75.5233 1.12711 75.6595 1.30448 75.6595 1.4955C75.6595 1.64558 75.5709 1.86388 75.3939 2.15041C75.2305 2.43693 75.101 2.58019 75.0058 2.58019C74.9376 2.58019 74.8354 2.54608 74.6993 2.47786C74.5768 2.40965 74.4951 2.36188 74.4542 2.3346C73.7731 1.97986 73.065 1.80248 72.3295 1.80248C71.5395 1.80248 70.8995 2.00715 70.4092 2.41647C69.9324 2.82578 69.6941 3.39202 69.6941 4.11514C69.6941 4.57904 69.8098 4.95425 70.0414 5.24077C70.2866 5.52729 70.5589 5.7456 70.8586 5.89568C71.1718 6.03213 71.7097 6.25042 72.4725 6.55059C73.2897 6.8644 73.9569 7.17139 74.4746 7.47156C74.9921 7.75809 75.4279 8.18106 75.7821 8.74045C76.1498 9.28622 76.3337 9.98888 76.3337 10.8485C76.3337 12.0764 75.9251 13.0451 75.1079 13.7546C74.2908 14.4641 73.1876 14.8189 71.7984 14.8189ZM79.8271 14.737C79.2823 14.737 79.0099 14.5869 79.0099 14.2867V0.779186C79.0099 0.479018 79.2823 0.328934 79.8271 0.328934H79.9906C80.5352 0.328934 80.8077 0.479018 80.8077 0.779186V7.04178H80.8895L85.9151 0.615459C86.0648 0.424441 86.4326 0.328934 87.0183 0.328934H87.2226C87.454 0.328934 87.6311 0.356222 87.7537 0.410799C87.8763 0.451731 87.9376 0.513129 87.9376 0.594993C87.9376 0.717789 87.8694 0.854229 87.7333 1.00431L82.626 7.3897L88.8161 14.123C88.9386 14.2595 88.9999 14.3686 88.9999 14.4505C88.9999 14.5596 88.9317 14.6347 88.7956 14.6756C88.6594 14.7165 88.4279 14.737 88.101 14.737H87.8559C87.5562 14.737 87.3178 14.7233 87.1408 14.6961C86.9774 14.6688 86.8411 14.5937 86.7323 14.4709L80.8895 7.88088H80.8077V14.2867C80.8077 14.5869 80.5352 14.737 79.9906 14.737H79.8271Z" fill="black" fill-opacity="0.87"/>
</svg>
