<svg width="36" height="36" viewBox="0 0 36 36" fill="none" xmlns="http://www.w3.org/2000/svg">
<path d="M35.3604 31.613L35.2776 31.3098L35.1914 30.9926L33.6647 25.3746L33.3333 25.3604L32.9987 25.3447L34.5301 30.9815H30.4807L30.5301 31.3399C30.6815 32.4242 30.3564 33.4756 29.7046 34.2332C29.5803 34.3785 29.4433 34.5127 29.2966 34.6326C29.2521 34.6705 29.2058 34.7068 29.1596 34.7399C29.064 34.8126 28.9652 34.8773 28.8616 34.9357C28.6911 35.0352 28.5111 35.1203 28.3213 35.1867C28.0058 35.2987 27.6775 35.3587 27.3477 35.3682C27.2392 35.3714 27.1309 35.3682 27.0226 35.3619C26.9174 35.3556 26.8121 35.3429 26.7071 35.3256C25.9612 35.2071 25.2489 34.8441 24.7135 34.2743C23.8242 33.3287 23.7748 32.1734 23.7955 31.706C23.7955 31.5688 23.8018 31.4471 23.8146 31.3335L23.8561 30.9815H11.7621L11.8035 31.3335C11.8163 31.4471 11.8243 31.5688 11.8243 31.7187C11.8434 32.1734 11.794 33.3287 10.9047 34.2743C10.3693 34.8441 9.65694 35.2071 8.9127 35.3256C8.80763 35.3429 8.7024 35.3556 8.59717 35.3619C8.48886 35.3682 8.38055 35.3714 8.27208 35.3682C7.94068 35.3587 7.61235 35.2987 7.29682 35.1867C7.10877 35.1203 6.92869 35.0368 6.75977 34.9373H6.75817C6.65459 34.8788 6.5542 34.8126 6.45858 34.7399C6.41236 34.7068 6.36614 34.6705 6.32152 34.6326C6.17491 34.5127 6.03786 34.3785 5.91355 34.2332C5.26178 33.4756 4.93667 32.4242 5.08806 31.3399L5.13747 30.9815H1.08969L2.62115 25.3447L2.28649 25.3604L1.95342 25.3746L0.426735 30.9926L0.340688 31.3098L0.257812 31.613H4.42033C4.31517 33.4677 5.39244 35.1851 7.08167 35.7818C8.55265 36.3027 10.2768 35.8702 11.3718 34.7052C12.4251 33.5844 12.484 32.2238 12.4618 31.706C12.4618 31.6745 12.4602 31.6428 12.4602 31.613H23.1581V31.6919C23.1342 32.2238 23.1931 33.5844 24.2466 34.7052C25.0337 35.5419 26.1429 35.9996 27.2504 35.9996C27.6856 35.9996 28.1206 35.9286 28.5365 35.7818C30.2257 35.1851 31.303 33.4677 31.1979 31.613H35.3604ZM3.01795 22.669L2.69445 22.6421L2.12713 24.7353L2.46179 24.7211L2.79486 24.7054L3.34146 22.6958L3.01795 22.669ZM26.7709 0L26.4377 1.01183C25.4433 4.04573 24.4473 7.07964 23.453 10.112L22.9733 11.5753C21.7605 11.0101 19.9628 10.415 17.8211 10.4529H17.8036C15.6554 10.4182 13.8577 11.0101 12.6451 11.5753L12.1654 10.112C11.1708 7.07964 10.1765 4.04573 9.18048 1.01183L8.84746 0L3.61875 19.2437L3.91836 19.3589L4.21795 19.4726L8.90639 2.21782C9.79083 4.91549 10.6753 7.6116 11.5581 10.3077L12.2674 12.4671L12.5988 12.2998C13.7398 11.7252 15.5741 11.0433 17.7987 11.0843H17.8258C20.0569 11.0464 21.8784 11.7252 23.0194 12.2998L23.3524 12.4671L24.0601 10.3077C24.9429 7.6116 25.8273 4.91549 26.7134 2.21782L31.4018 19.4726L31.7014 19.3589L31.9995 19.2437L26.7709 0ZM3.45142 19.8562L2.86338 22.0218L3.18688 22.0486L3.51038 22.0755L4.05063 20.0867L3.75102 19.9714L3.45142 19.8562ZM32.1667 19.8576L31.8688 19.9714L31.5692 20.0867L32.1094 22.0755L32.4329 22.0486L32.7549 22.0234L32.1667 19.8576ZM32.9237 22.6421L32.6019 22.669L32.2783 22.6958L32.825 24.7054L33.158 24.7211L33.491 24.7353L32.9237 22.6421Z" fill="black" fill-opacity="0.87"/>
</svg>
